<mxfile host="app.diagrams.net" modified="2023-06-06T13:13:48.485Z" agent="Mozilla/5.0 (Windows NT 10.0; Win64; x64) AppleWebKit/537.36 (KHTML, like Gecko) Chrome/112.0.0.0 Safari/537.36 OPR/98.0.0.0" version="21.1.1" etag="GRf7qJsSeOFG2xbkkTQb" type="github">
  <diagram name="PÃ¡gina-1" id="me96ybs4i6urZiMNqxOX">
    <mxGraphModel>
      <root>
        <mxCell id="0" />
        <mxCell id="1" parent="0" />
      </root>
    </mxGraphModel>
  </diagram>
</mxfile>
